<svg width="47" height="52" viewBox="0 0 47 52" fill="none" xmlns="http://www.w3.org/2000/svg">
<path d="M45.6 13.4156L23.2808 1L1.23096 13.2656L17.5086 22.868L23.1654 19.6046L12.429 13.4906L23.4731 7.14994L39.9432 16.4539L45.6 13.4156Z" fill="#1792FF"/>
<path d="M6.81812 35.1833C6.97204 35.1458 12.2041 32.1222 12.2041 32.1222L28.7453 41.4351L23.3194 44.4733L6.81812 35.1833Z" fill="#1792FF"/>
<path d="M23.2806 1L1.15381 13.4156V38.5094L23.3961 51L28.9759 47.9617V41.5476L12.1595 32.0578V26.0187L17.7008 29.1695L23.3961 26.0187V19.6797L17.7778 16.4539L23.473 13.4906L40.0585 22.7554L45.7922 19.6422V13.3781L23.2806 1Z" stroke="#1792FF" stroke-miterlimit="10" stroke-linejoin="round"/>
<path d="M23.5886 13.3406V7.30157" stroke="#1792FF" stroke-miterlimit="10"/>
<path d="M29.0144 16.6789V10.2273" stroke="#1792FF" stroke-miterlimit="10"/>
<path d="M34.5173 19.8672V13.4531" stroke="#1792FF" stroke-miterlimit="10"/>
<path d="M39.9817 22.5304V16.6789" stroke="#1792FF" stroke-miterlimit="10" stroke-linecap="round"/>
<path d="M17.7393 29.2445V22.7929" stroke="#1792FF" stroke-miterlimit="10"/>
<path d="M17.7393 16.4913V10.3398" stroke="#1792FF" stroke-miterlimit="10"/>
<path d="M17.7393 47.8117V41.7351" stroke="#1792FF" stroke-miterlimit="10"/>
<path d="M12.1597 44.8109V38.3968" stroke="#1792FF" stroke-miterlimit="10"/>
<path d="M40.1741 10.3023L34.5173 13.4906" stroke="#1792FF" stroke-miterlimit="10"/>
<path d="M23.3961 38.4719L17.7778 41.6602" stroke="#1792FF" stroke-miterlimit="10"/>
<path d="M17.9318 35.246L12.3135 38.4343" stroke="#1792FF" stroke-miterlimit="10"/>
<path d="M17.6625 16.6039L12.1597 19.6796V26.2062" stroke="#1792FF" stroke-miterlimit="10"/>
<path d="M34.5171 7.22656L29.1682 10.2648" stroke="#1792FF" stroke-miterlimit="10"/>
<path d="M28.8991 3.85071L23.2039 7.15153" stroke="#1792FF" stroke-miterlimit="10"/>
<path d="M18.0474 3.81317L23.7426 7.11399" stroke="#1792FF" stroke-miterlimit="10"/>
<path d="M12.1597 7.039L17.8549 10.3398" stroke="#1792FF" stroke-miterlimit="10"/>
<path d="M1 25.7561L6.56935 28.9805" stroke="#1792FF" stroke-miterlimit="10"/>
<path d="M1.30786 32.0953L6.73374 35.2086" stroke="#1792FF" stroke-miterlimit="10"/>
<path d="M12.2366 13.3406L23.5501 7.30157L39.9817 16.6039" stroke="#1792FF" stroke-miterlimit="10" stroke-linecap="round" stroke-linejoin="round"/>
<path d="M6.81079 10.2648L17.778 16.4539" stroke="#1792FF" stroke-miterlimit="10"/>
<path d="M6.73364 35.2086V41.7727" stroke="#1792FF" stroke-miterlimit="10"/>
<path d="M12.2365 13.5657L6.73364 16.6415V22.793" stroke="#1792FF" stroke-miterlimit="10"/>
<path d="M1.34644 13.3406L17.7395 23.018L23.3963 19.6797" stroke="#1792FF" stroke-miterlimit="10" stroke-linecap="round"/>
<path d="M23.3961 50.6248V44.6983L6.73364 35.2085V22.7929" stroke="#1792FF" stroke-miterlimit="10" stroke-linecap="round" stroke-linejoin="round"/>
<path d="M23.3965 44.6983L28.9763 41.5475" stroke="#1792FF" stroke-miterlimit="10" stroke-linecap="round"/>
<path d="M6.81787 28.9805L12.2867 26.1611" stroke="#1792FF" stroke-miterlimit="10" stroke-linecap="round"/>
<path d="M12.1596 26.0188L1.11548 19.5296" stroke="#1792FF" stroke-miterlimit="10"/>
</svg>
